<?xml version="1.0" standalone="no"?>
<!DOCTYPE svg PUBLIC "-//W3C//DTD SVG 20010904//EN"
 "http://www.w3.org/TR/2001/REC-SVG-20010904/DTD/svg10.dtd">
<svg version="1.0" xmlns="http://www.w3.org/2000/svg"
 width="357.000000pt" height="311.000000pt" viewBox="0 0 357.000000 311.000000"
 preserveAspectRatio="xMidYMid meet">

<g transform="translate(0.000000,311.000000) scale(0.100000,-0.100000)"
fill="#000000" stroke="none">
<path d="M1710 2849 c-589 -57 -1062 -485 -1192 -1077 -17 -78 -21 -131 -21
-267 0 -185 16 -287 69 -442 199 -581 782 -959 1391 -902 319 29 597 156 824
376 160 155 274 336 343 543 46 141 66 267 66 425 0 375 -141 708 -409 968
-226 219 -511 349 -825 377 -122 11 -124 11 -246 -1z m352 -124 c90 -16 262
-72 338 -110 99 -50 239 -153 325 -240 175 -174 293 -397 342 -642 23 -118 23
-338 0 -456 -64 -324 -257 -616 -526 -795 -120 -80 -163 -102 -291 -146 -140
-49 -246 -66 -412 -66 -344 0 -628 119 -874 364 -243 243 -364 533 -364 871 0
338 121 628 364 871 183 183 382 291 631 344 114 24 346 26 467 5z"/>
<path d="M1315 2389 c-101 -18 -114 -27 -28 -22 161 11 255 -24 418 -157 123
-100 201 -145 285 -164 63 -15 190 -22 190 -10 0 3 -5 24 -11 47 l-10 43 -87
24 c-78 21 -217 86 -392 183 -113 62 -228 80 -365 56z"/>
<path d="M1185 2313 c-56 -14 -206 -65 -202 -69 2 -3 43 0 91 6 186 23 277
-15 462 -190 151 -144 206 -183 293 -210 72 -23 200 -27 297 -9 105 18 102 16
84 79 l-10 35 -92 1 c-160 1 -254 41 -435 185 -173 138 -267 180 -397 178 -39
-1 -80 -4 -91 -6z"/>
<path d="M1007 2186 c-26 -7 -49 -15 -52 -18 -3 -2 37 -5 88 -5 71 0 106 -6
152 -23 63 -24 66 -27 330 -302 129 -135 193 -170 326 -176 97 -5 219 18 334
62 51 20 60 27 57 47 -1 12 -4 25 -6 27 -3 2 -50 -8 -106 -22 -145 -37 -212
-42 -290 -22 -36 9 -82 27 -103 39 -21 13 -107 91 -190 174 -124 122 -164 156
-217 181 -106 50 -226 64 -323 38z"/>
<path d="M2565 2144 c-27 -7 -96 -19 -152 -26 -103 -12 -111 -16 -97 -51 5
-13 13 -13 63 -1 61 14 207 65 237 83 25 14 11 12 -51 -5z"/>
<path d="M2607 2080 c-82 -33 -175 -67 -208 -76 l-61 -17 7 -36 c4 -20 9 -38
11 -41 13 -12 404 207 404 226 0 5 14 10 -153 -56z"/>
<path d="M2535 1925 c-38 -19 -91 -42 -117 -52 -31 -11 -48 -23 -48 -33 0 -39
10 -36 163 63 42 27 77 51 77 53 0 5 6 8 -75 -31z"/>
<path d="M777 1527 c-3 -7 -11 -48 -17 -90 -12 -71 -11 -79 5 -97 10 -11 23
-20 29 -20 6 0 5 5 -2 12 -7 7 -12 22 -12 35 0 34 45 32 54 -2 4 -14 4 -30 1
-35 -4 -6 1 -10 9 -10 22 0 23 27 2 127 -17 84 -22 93 -42 93 -12 0 -24 -6
-27 -13z m36 -69 c4 -29 2 -38 -9 -38 -15 0 -19 35 -8 65 8 21 10 18 17 -27z"/>
<path d="M880 1453 c0 -72 4 -93 20 -113 11 -14 20 -19 20 -12 0 6 11 12 25
12 18 0 25 5 25 20 0 15 -7 20 -25 20 -25 0 -25 1 -25 80 0 73 -2 80 -20 80
-18 0 -20 -7 -20 -87z"/>
<path d="M1080 1457 c0 -80 14 -137 35 -137 6 0 9 23 7 55 -3 45 -1 55 12 55
11 0 16 -9 16 -28 0 -31 21 -82 33 -82 5 0 5 24 1 53 -4 28 -7 74 -6 101 2 57
-6 66 -60 66 l-38 0 0 -83z m68 30 c2 -19 -1 -27 -12 -27 -11 0 -16 10 -16 31
0 38 24 35 28 -4z"/>
<path d="M1210 1457 c0 -77 14 -137 33 -137 4 0 7 50 7 110 0 103 -1 110 -20
110 -18 0 -20 -7 -20 -83z"/>
<path d="M1260 1531 c0 -5 9 -11 20 -14 18 -5 20 -14 20 -79 0 -85 7 -118 25
-118 9 0 11 23 7 96 -5 91 -4 95 17 101 40 10 21 23 -34 23 -30 0 -55 -4 -55
-9z"/>
<path d="M1380 1457 c0 -75 14 -137 32 -137 3 0 5 35 2 78 l-4 77 20 -70 c10
-38 19 -73 19 -77 1 -5 7 -8 14 -8 10 0 14 17 14 59 1 32 6 67 12 77 8 15 10
7 11 -42 0 -37 6 -68 15 -80 13 -17 14 -8 15 94 l0 112 -24 0 c-23 0 -26 -6
-38 -62 l-12 -63 -14 63 c-12 55 -16 62 -38 62 -23 0 -24 -2 -24 -83z"/>
<path d="M1562 1528 c-17 -17 -16 -142 2 -157 8 -7 12 -21 9 -31 -3 -11 0 -20
6 -20 6 0 11 5 11 10 0 15 48 12 53 -2 2 -7 8 -9 13 -5 5 5 1 15 -10 23 -16
11 -17 17 -8 26 16 16 16 140 0 156 -7 7 -24 12 -38 12 -14 0 -31 -5 -38 -12z
m53 -79 c0 -50 -3 -64 -15 -64 -11 0 -16 14 -18 54 -4 61 3 84 21 78 8 -2 12
-25 12 -68z"/>
<path d="M1770 1453 c0 -72 4 -93 20 -113 11 -14 20 -19 20 -12 0 6 11 12 24
12 13 0 26 -6 29 -12 2 -7 8 -9 13 -5 5 5 1 15 -10 22 -17 13 -17 15 -2 30 22
22 22 127 0 149 -9 9 -32 16 -55 16 l-39 0 0 -87z m65 -3 c0 -42 -4 -65 -12
-67 -10 -4 -13 14 -13 67 0 53 3 71 13 68 8 -3 12 -26 12 -68z"/>
<path d="M1900 1455 c0 -79 13 -135 32 -135 4 0 8 5 8 10 0 6 14 10 31 10 24
0 30 3 25 16 -3 9 -6 18 -6 20 0 2 -11 4 -25 4 -21 0 -25 5 -25 30 0 23 4 30
20 30 11 0 20 5 20 10 0 6 -9 10 -20 10 -16 0 -20 7 -20 30 0 25 4 30 25 30
14 0 25 5 25 10 0 6 -20 10 -45 10 l-45 0 0 -85z"/>
<path d="M2110 1455 c0 -101 22 -162 45 -125 3 6 17 10 31 10 13 0 24 5 24 12
0 6 8 1 19 -10 10 -12 25 -22 32 -22 10 0 11 2 2 8 -6 4 -15 20 -18 35 -6 24
-4 27 18 27 19 0 27 -7 33 -27 4 -16 7 -31 6 -35 -1 -5 5 -8 13 -8 19 0 19 -7
-7 117 -20 94 -23 103 -44 103 -25 0 -28 -7 -44 -101 -11 -65 -12 -65 -41 -61
l-29 4 0 79 c0 72 -2 79 -20 79 -18 0 -20 -7 -20 -85z m163 3 c4 -29 2 -38 -9
-38 -15 0 -19 35 -8 65 8 21 10 18 17 -27z"/>
<path d="M2440 1451 c0 -73 3 -93 19 -112 l20 -24 -4 80 -4 80 15 -55 c19 -71
22 -83 23 -92 1 -5 10 -8 22 -8 17 0 19 4 13 18 -10 22 -6 100 6 121 7 11 9
-3 10 -50 0 -45 5 -70 14 -78 20 -17 22 -8 18 107 -3 100 -4 102 -27 102 -21
0 -25 -7 -37 -62 l-12 -63 -14 63 c-12 55 -16 62 -38 62 -24 0 -24 -2 -24 -89z"/>
<path d="M2622 1528 c-7 -7 -12 -40 -12 -79 0 -59 3 -70 22 -83 12 -9 17 -16
10 -16 -6 0 -12 -7 -12 -15 0 -18 12 -19 28 -3 9 9 18 9 37 0 28 -13 35 2 8
17 -15 8 -16 12 -5 22 16 17 16 141 0 157 -7 7 -24 12 -38 12 -14 0 -31 -5
-38 -12z m53 -79 c0 -50 -3 -64 -15 -64 -11 0 -16 14 -18 54 -4 61 3 84 21 78
8 -2 12 -25 12 -68z"/>
<path d="M2730 1454 c0 -60 4 -90 14 -100 8 -7 17 -19 19 -26 4 -10 8 -10 16
2 8 12 16 13 41 3 34 -13 41 0 10 17 -18 10 -19 13 -5 26 21 21 21 127 -1 148
-9 9 -32 16 -55 16 l-39 0 0 -86z m65 -4 c0 -42 -4 -65 -12 -67 -10 -4 -13 14
-13 67 0 53 3 71 13 68 8 -3 12 -26 12 -68z"/>
<path d="M2886 1523 c-3 -10 -10 -48 -17 -86 -10 -58 -9 -71 5 -92 20 -30 42
-35 26 -6 -17 33 -12 51 15 51 20 0 25 -6 31 -35 3 -19 12 -35 19 -35 15 0 28
27 16 34 -5 3 -16 46 -26 96 -16 82 -19 90 -41 90 -13 0 -25 -7 -28 -17z m37
-65 c4 -29 2 -38 -9 -38 -15 0 -19 35 -8 65 8 21 10 18 17 -27z"/>
<path d="M1767 858 l-27 -87 -86 -3 -86 -3 66 -48 c36 -27 66 -55 66 -62 0 -8
-11 -48 -24 -90 -13 -41 -23 -75 -22 -75 1 0 31 22 67 50 35 27 68 50 73 50 4
0 37 -23 72 -50 35 -28 64 -47 64 -43 0 5 -11 44 -25 88 -13 43 -23 80 -22 80
1 1 33 25 70 53 l69 51 -88 3 -88 3 -26 85 -27 85 -26 -87z"/>
</g>
</svg>
