<?xml version="1.0"?>
<svg width="357" height="311" xmlns="http://www.w3.org/2000/svg" xmlns:svg="http://www.w3.org/2000/svg" preserveAspectRatio="xMidYMid meet" version="1.0">
 <g class="layer">
  <title>Layer 1</title>
  <g fill="#000000" id="svg_1" transform="matrix(0.1 0 0 -0.1 0 0)">
   <path d="m1710,-261c-589,-57 -1062,-485 -1192,-1077c-17,-78 -21,-131 -21,-267c0,-185 16,-287 69,-442c199,-581 782,-959 1391,-902c319,29 597,156 824,376c160,155 274,336 343,543c46,141 66,267 66,425c0,375 -141,708 -409,968c-226,219 -511,349 -825,377c-122,11 -124,11 -246,-1zm352,-124c90,-16 262,-72 338,-110c99,-50 239,-153 325,-240c175,-174 293,-397 342,-642c23,-118 23,-338 0,-456c-64,-324 -257,-616 -526,-795c-120,-80 -163,-102 -291,-146c-140,-49 -246,-66 -412,-66c-344,0 -628,119 -874,364c-243,243 -364,533 -364,871c0,338 121,628 364,871c183,183 382,291 631,344c114,24 346,26 467,5z" fill="#ffffff" id="svg_2"/>
   <path d="m1315,-721c-101,-18 -114,-27 -28,-22c161,11 255,-24 418,-157c123,-100 201,-145 285,-164c63,-15 190,-22 190,-10c0,3 -5,24 -11,47l-10,43l-87,24c-78,21 -217,86 -392,183c-113,62 -228,80 -365,56z" fill="#ffffff" id="svg_3"/>
   <path d="m1185,-797c-56,-14 -206,-65 -202,-69c2,-3 43,0 91,6c186,23 277,-15 462,-190c151,-144 206,-183 293,-210c72,-23 200,-27 297,-9c105,18 102,16 84,79l-10,35l-92,1c-160,1 -254,41 -435,185c-173,138 -267,180 -397,178c-39,-1 -80,-4 -91,-6z" fill="#ffffff" id="svg_4"/>
   <path d="m1007,-924c-26,-7 -49,-15 -52,-18c-3,-2 37,-5 88,-5c71,0 106,-6 152,-23c63,-24 66,-27 330,-302c129,-135 193,-170 326,-176c97,-5 219,18 334,62c51,20 60,27 57,47c-1,12 -4,25 -6,27c-3,2 -50,-8 -106,-22c-145,-37 -212,-42 -290,-22c-36,9 -82,27 -103,39c-21,13 -107,91 -190,174c-124,122 -164,156 -217,181c-106,50 -226,64 -323,38z" fill="#ffffff" id="svg_5"/>
   <path d="m2565,-966c-27,-7 -96,-19 -152,-26c-103,-12 -111,-16 -97,-51c5,-13 13,-13 63,-1c61,14 207,65 237,83c25,14 11,12 -51,-5z" fill="#ffffff" id="svg_6"/>
   <path d="m2607,-1030c-82,-33 -175,-67 -208,-76l-61,-17l7,-36c4,-20 9,-38 11,-41c13,-12 404,207 404,226c0,5 14,10 -153,-56z" fill="#ffffff" id="svg_7"/>
   <path d="m2535,-1185c-38,-19 -91,-42 -117,-52c-31,-11 -48,-23 -48,-33c0,-39 10,-36 163,63c42,27 77,51 77,53c0,5 6,8 -75,-31z" fill="#ffffff" id="svg_8"/>
   <path d="m777,-1583c-3,-7 -11,-48 -17,-90c-12,-71 -11,-79 5,-97c10,-11 23,-20 29,-20c6,0 5,5 -2,12c-7,7 -12,22 -12,35c0,34 45,32 54,-2c4,-14 4,-30 1,-35c-4,-6 1,-10 9,-10c22,0 23,27 2,127c-17,84 -22,93 -42,93c-12,0 -24,-6 -27,-13zm36,-69c4,-29 2,-38 -9,-38c-15,0 -19,35 -8,65c8,21 10,18 17,-27z" fill="#ffffff" id="svg_9"/>
   <path d="m880,-1657c0,-72 4,-93 20,-113c11,-14 20,-19 20,-12c0,6 11,12 25,12c18,0 25,5 25,20c0,15 -7,20 -25,20c-25,0 -25,1 -25,80c0,73 -2,80 -20,80c-18,0 -20,-7 -20,-87z" fill="#ffffff" id="svg_10"/>
   <path d="m1080,-1653c0,-80 14,-137 35,-137c6,0 9,23 7,55c-3,45 -1,55 12,55c11,0 16,-9 16,-28c0,-31 21,-82 33,-82c5,0 5,24 1,53c-4,28 -7,74 -6,101c2,57 -6,66 -60,66l-38,0l0,-83zm68,30c2,-19 -1,-27 -12,-27c-11,0 -16,10 -16,31c0,38 24,35 28,-4z" fill="#ffffff" id="svg_11"/>
   <path d="m1210,-1653c0,-77 14,-137 33,-137c4,0 7,50 7,110c0,103 -1,110 -20,110c-18,0 -20,-7 -20,-83z" fill="#ffffff" id="svg_12"/>
   <path d="m1260,-1579c0,-5 9,-11 20,-14c18,-5 20,-14 20,-79c0,-85 7,-118 25,-118c9,0 11,23 7,96c-5,91 -4,95 17,101c40,10 21,23 -34,23c-30,0 -55,-4 -55,-9z" fill="#ffffff" id="svg_13"/>
   <path d="m1380,-1653c0,-75 14,-137 32,-137c3,0 5,35 2,78l-4,77l20,-70c10,-38 19,-73 19,-77c1,-5 7,-8 14,-8c10,0 14,17 14,59c1,32 6,67 12,77c8,15 10,7 11,-42c0,-37 6,-68 15,-80c13,-17 14,-8 15,94l0,112l-24,0c-23,0 -26,-6 -38,-62l-12,-63l-14,63c-12,55 -16,62 -38,62c-23,0 -24,-2 -24,-83z" fill="#ffffff" id="svg_14"/>
   <path d="m1562,-1582c-17,-17 -16,-142 2,-157c8,-7 12,-21 9,-31c-3,-11 0,-20 6,-20c6,0 11,5 11,10c0,15 48,12 53,-2c2,-7 8,-9 13,-5c5,5 1,15 -10,23c-16,11 -17,17 -8,26c16,16 16,140 0,156c-7,7 -24,12 -38,12c-14,0 -31,-5 -38,-12zm53,-79c0,-50 -3,-64 -15,-64c-11,0 -16,14 -18,54c-4,61 3,84 21,78c8,-2 12,-25 12,-68z" fill="#ffffff" id="svg_15"/>
   <path d="m1770,-1657c0,-72 4,-93 20,-113c11,-14 20,-19 20,-12c0,6 11,12 24,12c13,0 26,-6 29,-12c2,-7 8,-9 13,-5c5,5 1,15 -10,22c-17,13 -17,15 -2,30c22,22 22,127 0,149c-9,9 -32,16 -55,16l-39,0l0,-87zm65,-3c0,-42 -4,-65 -12,-67c-10,-4 -13,14 -13,67c0,53 3,71 13,68c8,-3 12,-26 12,-68z" fill="#ffffff" id="svg_16"/>
   <path d="m1900,-1655c0,-79 13,-135 32,-135c4,0 8,5 8,10c0,6 14,10 31,10c24,0 30,3 25,16c-3,9 -6,18 -6,20c0,2 -11,4 -25,4c-21,0 -25,5 -25,30c0,23 4,30 20,30c11,0 20,5 20,10c0,6 -9,10 -20,10c-16,0 -20,7 -20,30c0,25 4,30 25,30c14,0 25,5 25,10c0,6 -20,10 -45,10l-45,0l0,-85z" fill="#ffffff" id="svg_17"/>
   <path d="m2110,-1655c0,-101 22,-162 45,-125c3,6 17,10 31,10c13,0 24,5 24,12c0,6 8,1 19,-10c10,-12 25,-22 32,-22c10,0 11,2 2,8c-6,4 -15,20 -18,35c-6,24 -4,27 18,27c19,0 27,-7 33,-27c4,-16 7,-31 6,-35c-1,-5 5,-8 13,-8c19,0 19,-7 -7,117c-20,94 -23,103 -44,103c-25,0 -28,-7 -44,-101c-11,-65 -12,-65 -41,-61l-29,4l0,79c0,72 -2,79 -20,79c-18,0 -20,-7 -20,-85zm163,3c4,-29 2,-38 -9,-38c-15,0 -19,35 -8,65c8,21 10,18 17,-27z" fill="#ffffff" id="svg_18"/>
   <path d="m2440,-1659c0,-73 3,-93 19,-112l20,-24l-4,80l-4,80l15,-55c19,-71 22,-83 23,-92c1,-5 10,-8 22,-8c17,0 19,4 13,18c-10,22 -6,100 6,121c7,11 9,-3 10,-50c0,-45 5,-70 14,-78c20,-17 22,-8 18,107c-3,100 -4,102 -27,102c-21,0 -25,-7 -37,-62l-12,-63l-14,63c-12,55 -16,62 -38,62c-24,0 -24,-2 -24,-89z" fill="#ffffff" id="svg_19"/>
   <path d="m2622,-1582c-7,-7 -12,-40 -12,-79c0,-59 3,-70 22,-83c12,-9 17,-16 10,-16c-6,0 -12,-7 -12,-15c0,-18 12,-19 28,-3c9,9 18,9 37,0c28,-13 35,2 8,17c-15,8 -16,12 -5,22c16,17 16,141 0,157c-7,7 -24,12 -38,12c-14,0 -31,-5 -38,-12zm53,-79c0,-50 -3,-64 -15,-64c-11,0 -16,14 -18,54c-4,61 3,84 21,78c8,-2 12,-25 12,-68z" fill="#ffffff" id="svg_20"/>
   <path d="m2730,-1656c0,-60 4,-90 14,-100c8,-7 17,-19 19,-26c4,-10 8,-10 16,2c8,12 16,13 41,3c34,-13 41,0 10,17c-18,10 -19,13 -5,26c21,21 21,127 -1,148c-9,9 -32,16 -55,16l-39,0l0,-86zm65,-4c0,-42 -4,-65 -12,-67c-10,-4 -13,14 -13,67c0,53 3,71 13,68c8,-3 12,-26 12,-68z" fill="#ffffff" id="svg_21"/>
   <path d="m2886,-1587c-3,-10 -10,-48 -17,-86c-10,-58 -9,-71 5,-92c20,-30 42,-35 26,-6c-17,33 -12,51 15,51c20,0 25,-6 31,-35c3,-19 12,-35 19,-35c15,0 28,27 16,34c-5,3 -16,46 -26,96c-16,82 -19,90 -41,90c-13,0 -25,-7 -28,-17zm37,-65c4,-29 2,-38 -9,-38c-15,0 -19,35 -8,65c8,21 10,18 17,-27z" fill="#ffffff" id="svg_22"/>
   <path d="m1767,-2252l-27,-87l-86,-3l-86,-3l66,-48c36,-27 66,-55 66,-62c0,-8 -11,-48 -24,-90c-13,-41 -23,-75 -22,-75c1,0 31,22 67,50c35,27 68,50 73,50c4,0 37,-23 72,-50c35,-28 64,-47 64,-43c0,5 -11,44 -25,88c-13,43 -23,80 -22,80c1,1 33,25 70,53l69,51l-88,3l-88,3l-26,85l-27,85l-26,-87z" fill="#ffffff" id="svg_23"/>
  </g>
 </g>
</svg>